<?xml version="1.0" encoding="UTF-8"?>
<svg id="katman_1" data-name="katman 1" xmlns="http://www.w3.org/2000/svg" xmlns:xlink="http://www.w3.org/1999/xlink" viewBox="0 0 512 438.95">
  <defs>
    <style>
      .cls-1 {
        fill: url(#Adsız_degrade_50);
      }

      .cls-2 {
        fill: url(#Adsız_degrade_49);
      }

      .cls-3 {
        fill: url(#Adsız_degrade_48);
      }

      .cls-4 {
        fill: #a7b8ad;
      }

      .cls-5 {
        fill: #081734;
      }

      .cls-6 {
        fill: #98d4a9;
      }

      .cls-7 {
        fill: #123a3f;
      }

      .cls-8 {
        fill: #617574;
      }

      .cls-9 {
        fill: #6d777b;
      }

      .cls-10 {
        fill: #86cba2;
      }

      .cls-11 {
        fill: #e2ead6;
      }

      .cls-12 {
        fill: #dcf7e6;
      }

      .cls-13 {
        fill: #87da9f;
      }

      .cls-14 {
        fill: #d3e5ce;
      }
    </style>
    <linearGradient id="Adsız_degrade_48" data-name="Adsız degrade 48" x1="-14.03" y1="85.78" x2="297.96" y2="343.91" gradientUnits="userSpaceOnUse">
      <stop offset="0" stop-color="#1a5f4a"/>
      <stop offset="1" stop-color="#062132"/>
    </linearGradient>
    <linearGradient id="Adsız_degrade_49" data-name="Adsız degrade 49" x1="299.17" y1="126.78" x2="299.27" y2="306.96" gradientUnits="userSpaceOnUse">
      <stop offset="0" stop-color="#88c287"/>
      <stop offset="1" stop-color="#1f7355"/>
    </linearGradient>
    <linearGradient id="Adsız_degrade_50" data-name="Adsız degrade 50" x1="206.51" y1="138.22" x2="251.05" y2="296.42" gradientUnits="userSpaceOnUse">
      <stop offset="0" stop-color="#bfe9ab"/>
      <stop offset="1" stop-color="#66ba84"/>
    </linearGradient>
  </defs>
  <g id="_Üretken_Nesne" data-name="Üretken Nesne">
    <g>
      <path class="cls-5" d="M490.39,14.83c.09.45.07.9.08,1.35.32,10.9-.65,21.86.51,32.92,1.48,14.1-.37,30.44-.35,42.22l.09,58.12c0,1.33,1.12,3.45-.24,4.67l.38,203.08c.02,11.64,1.24,22.44.42,34.25-.61,8.76-7.8,16.74-16.57,15.83-43-4.45-85.9-7.04-129.76-4.08-22.99,1.55-44.17,5.1-65.35,10.98-1.17.33-2.32.27-3.98,1.57,1.4.51,4.28,1.25,4.97-.58,30.34-3.61,65.22-5.02,97.03-5.21l92.99-.56c1.74.06,3.88.25,5.58.22,10.26-.19,16.34-7.28,16.34-17.45l-.07-373.02c1.35.23,1.02-1.7.98-3.44,7.77-1.72,18.44,3.2,18.44,12.65l.13,375.72c-1.59,12.26-10.36,21.07-22.65,22.29l-207.06.05c-13.77,16.82-39.23,16.56-52.89.04l-209.12-.56C7.72,425.88-.01,411.41,0,400.19L.35,65.83c0-9.03,11.41-13.36,18.05-14.61,2.05,6.27.15,11.9.13,17.96l-.29,113.33v208.9c0,10.32,6.86,18.33,17.85,18.37l101.93.42c30.49.13,59.81,1.72,90.2,4.42,2.72.24,4.53,2.57,6.83,1.54.01,1.35,2.02,1.28,2.97,1.16,5.61,2.73,11.21,5.69,18.12,7.88l-.11-59.22c-1.59-.44-3-.08-3.24-1.26,8.05.32,5.48-36.4,4.85-41.46-.18-1.46-.52-2.64-.81-4.12.95,1.33,2.92,3.01,1.99,6.8,19.56-8.7,31.14-10.66,49.34-24.65,29.09-22.36,40.55-58.98,29.72-94.09-5.48-17.75-13.94-33.51-26.32-47.22l-26.59-29.44c-10.87-12.04-18.97-25.28-26.34-39.15-1.18-2.21-.81-5.52-1.83-7.84,1.24.13.74-1.04,1.06-1.5,1.09-1.6-1.6-1.13-1.63-1.96-.49-11.1-.5-24.22-.23-35.75.01-.51.95-1.02.82-1.46C283.9,9.25,355.23-.66,396.41.03l64.33,1.08c11.99.2,21.72,5.74,29.65,13.72Z"/>
      <path class="cls-12" d="M492.54,16.19c-.14.98-.08,1.97-.08,2.96l.07,373.02c0,10.17-6.08,17.25-16.34,17.45-1.7.03-3.84-.16-5.58-.22-1.19-3.68,2.57,2.02,4.11-2.12,8.77.91,15.96-7.07,16.57-15.83.82-11.82-.4-22.61-.42-34.25l-.38-203.08c1.36-1.22.24-3.34.24-4.67l-.09-58.12c-.02-11.78,1.82-28.12.35-42.22-1.16-11.07-.18-22.02-.51-32.92h2.06Z"/>
      <path class="cls-12" d="M492.54,16.19h-2.06c-.01-.46.01-.91-.08-1.36.51-.98,2.29.33,2.15,1.36Z"/>
      <path class="cls-10" d="M474.71,407.28c-1.54,4.13-5.3-1.57-4.11,2.12l-92.99.56c-31.81.19-66.69,1.61-97.03,5.21-.65.14-1.13-.34-.99-.99,21.18-5.88,42.36-9.43,65.35-10.98,43.86-2.96,86.76-.37,129.76,4.08Z"/>
      <path class="cls-9" d="M279.6,414.18c-.14.65.34,1.13.99.99-.69,1.83-3.58,1.09-4.97.58,1.66-1.3,2.81-1.25,3.98-1.57Z"/>
    </g>
    <g>
      <path class="cls-3" d="M256.82,42.87c.13.44-.81.94-.82,1.46-.27,11.52-.26,24.65.23,35.75.04.84,2.72.37,1.63,1.96-.32.46.18,1.64-1.06,1.5-.88-4.58-4,8.89-3.75,8.95-6.66,13.43-14.14,26-24.68,37.76l-26.27,29.3c-14.04,15.66-24.16,33.86-29.1,54.53-8.29,34.72,4.52,69.53,33.49,90.09,6.86,4.87,13.67,8.98,21.6,11.87l24.16,8.8c2.43,11.28-.26,23.22-3.2,34.84-.39,1.52-.28,2.58.37,3.76.6,1.08,2.21,1.15,3.35,1.27.25,1.18,1.65.82,3.24,1.26l.11,59.22c-6.91-2.19-12.51-5.15-18.12-7.88.17-.5-.05-.93-.49-1.16-.4-.21-.99.19-1.49,0-38.11-14.48-112.92-17.08-154.22-13.16.49-.3-.01-1.21-.46-1.65-18.44-1.09-21.34,4.24-39.67-2.93-3.5-1.37-8.45-6.84-8.45-11.99l-.1-369.96c0-1.91.39-3.38.82-4.16,3.54-6.37,9.97-10.78,18.02-10.93L119.21.2c39.98-.7,109.09,9.99,136.25,42.93.8-.43,1.25-.51,1.36-.26Z"/>
      <path class="cls-7" d="M33.96,12.31c-.44.78-.82,2.25-.82,4.16l.1,369.96c0,5.16,4.96,10.62,8.45,11.99,18.33,7.17,21.23,1.83,39.67,2.93.45.45.95,1.35.46,1.65l-43.7,4.14c-5.22.5-9.59-.92-12.94-3.8-4.06-3.49-4.97-7.02-4.97-11.93v-202.96l-.18-136.56-.1-25.82c-.03-7.91,6.62-13.94,14.03-13.76Z"/>
      <path class="cls-4" d="M20.21,188.45v202.96h-1.98v-208.9c2.4-.75-.42,6.69,1.98,5.94Z"/>
      <path class="cls-6" d="M20.21,391.41c0,4.9.91,8.43,4.97,11.93,3.35,2.89,7.72,4.3,12.94,3.8l43.7-4.14c41.3-3.91,116.1-1.32,154.22,13.16-.3.08-.71-.13-.99,0-2.3,1.04-4.11-1.29-6.83-1.54-30.4-2.7-59.72-4.3-90.2-4.42l-101.93-.42c-11-.05-17.85-8.06-17.85-18.37h1.98Z"/>
      <path class="cls-8" d="M238.02,417.31c-.95.12-2.96.2-2.97-1.16.28-.13.69.08.99,0,.5.19,1.09-.21,1.49,0,.45.23.66.66.49,1.16Z"/>
    </g>
    <g>
      <path class="cls-2" d="M256.83,319.13c-2.27-13.94,13.28-25.44,23.95-31.58l28.85-16.6c1.16-.67,2.55-.9,2.64-2.31,1.47-.06,2.6-.4,2.97-1.98.61.15,3.31-.63,2.64-1.59-1.03-1.47-2.42.99-2.64,1.59-1.22-.08-2.88.45-2.97,1.98-2.83.11-5.26,2.46-7.9,3.84l-16.64,9.15c-11.61,6.39-22.32,14.08-30.65,25.53l-.24-73.32c6.3-8.14,13.59-14.01,21.33-20.1,11.06-8.7,20.51-19.04,27.61-31.02-3.33.13-3.42,3.55-4.71,5.35-9.9,13.79-9.91,13.66-23.98,25.54-7,5.01-12.81,10.35-20.14,17.41l-.08-136.54c.38-1.16.22-1.33.29-1.66.16-.68.66-1.86,1.45-1.45,7.37,13.87,15.47,27.11,26.34,39.15l26.59,29.44c12.38,13.71,20.84,29.46,26.32,47.22,10.84,35.1-.63,71.73-29.72,94.09-18.2,13.99-29.78,15.95-49.34,24.65.93-3.78-1.04-5.47-1.99-6.8Z"/>
      <path class="cls-13" d="M257.63,323.25c.63,5.07,3.2,41.79-4.85,41.46-1.14-.12-2.75-.19-3.35-1.27-.65-1.18-.76-2.23-.37-3.76,2.94-11.62,5.62-23.56,3.2-34.84,1.08.39,3.09-.87,3.43-1.75.68-.17,1.28.53,1.95.15Z"/>
      <path class="cls-14" d="M315.24,266.66c.22-.6,1.61-3.07,2.64-1.59.68.97-2.02,1.75-2.64,1.59Z"/>
      <path class="cls-14" d="M315.24,266.66c-.37,1.58-1.5,1.92-2.97,1.98.09-1.53,1.75-2.06,2.97-1.98Z"/>
      <g>
        <path class="cls-14" d="M256.81,83.54c1.02,2.33.65,5.63,1.83,7.84-.79-.4-1.3.77-1.45,1.45-.07.33.08.5-.29,1.66l.08,136.54c7.32-7.06,13.14-12.4,20.14-17.41,14.06-11.88,14.07-11.75,23.98-25.54,1.3-1.8,1.38-5.22,4.71-5.35-7.1,11.98-16.55,22.32-27.61,31.02-7.74,6.08-15.03,11.95-21.33,20.1l.24,73.32c8.33-11.45,19.04-19.14,30.65-25.53l16.64-9.15c2.64-1.38,5.07-3.74,7.9-3.84-.09,1.42-1.48,1.64-2.64,2.31l-28.85,16.6c-10.67,6.14-26.22,17.64-23.95,31.58.28,1.48.63,2.66.81,4.12-.67.38-1.27-.32-1.95-.15.79-3.5-.92-7.03-.81-10.95l.38-14.9-1.04-52.15c-13.03-19.53-27-22.45-44.01-42.67-1.63-1.94-2.29-2.86-2.88-5.07.82.58,1.14,1.02,1.95,2.14,12.6,17.35,29.22,24.26,45.36,42.14l.43-143.84c-.05,15.63,3.79-46.02-1.2-4.92-.08.7-1.31.78-.81-.38-.24-.06,2.87-13.53,3.75-8.95Z"/>
        <path class="cls-1" d="M207.32,197.36c-1.07-4.01-4.4-7.3-6.69-11.11.64,4.68,3.41,8.79,6.69,11.11.59,2.21,1.25,3.14,2.88,5.07,17.02,20.22,30.98,23.14,44.01,42.67l1.04,52.15-.38,14.9c-.1,3.92,1.6,7.45.81,10.95-.34.88-2.35,2.14-3.43,1.75l-24.16-8.8c-7.93-2.89-14.74-7-21.6-11.87-28.97-20.56-41.78-55.37-33.49-90.09,4.93-20.67,15.06-38.87,29.1-54.53l26.27-29.3c10.55-11.76,18.02-24.34,24.68-37.76-.49,1.16.73,1.08.81.38,4.99-41.1,1.16,20.54,1.2,4.92l-.43,143.84c-16.14-17.88-32.76-24.79-45.36-42.14-.81-1.11-1.13-1.56-1.95-2.14Z"/>
        <path class="cls-11" d="M210.29,276.56c3.78.79,6.41,3.38,9.68,5.19,11.73,6.48,22.72,14.21,31.92,24.31.67.74,1.46,2.3.46,3.34-5.51-8.65-13.69-14.48-22.4-19.82l-14.13-8.67c-2.07-1.27-4.81-1.99-5.53-4.35Z"/>
        <path class="cls-14" d="M207.32,197.36c-3.28-2.32-6.04-6.43-6.69-11.11,2.29,3.81,5.61,7.1,6.69,11.11Z"/>
        <path class="cls-11" d="M210.29,276.56c-3.33-.7-6.7-2.83-9.05-5.98,3.98,1,6.11,3.84,9.05,5.98Z"/>
      </g>
    </g>
  </g>
</svg>